:FULLY-SPECIFIED
:FORCE-ALL-JOINTS-BE-3DOF
:DEGREES
918
root -0.205654 14.1347 -36.2926 12.6233 -27.4517 -16.2411
lfemur -64.2426 31.2662 -0.483088
ltibia 69.8268 -0 0
lfoot -6.65414 -8.98803 0.00830307
ltoes -9.81482 0 0
rfemur 5.7681 -8.58785 12.7458
rtibia 38.6102 -0 0
rfoot -22.7646 -28.2286 -0.00322307
rtoes -28.347 0 0
lowerback 11.3412 -0.00561788 6.67515
upperback -1.65594 1.33509 5.64991
thorax -8.16488 0.46467 2.0316
lowerneck -3.79067 7.82016 2.40232
upperneck 4.38878 10.341 -0.754869
head 2.20413 5.17372 -0.312682
lclavicle 3.04141e-14 -7.31528e-14 0
lhumerus 12.2605 -12.553 70.6325
lradius 25.4019 -0 0
lwrist -24.984 0 0
lhand -28.6001 30.8723 0.00457194
lfingers 7.12502 -0 0
lthumb -1.96529 60.7961 0.00500703
rclavicle 3.04141e-14 -7.31528e-14 0
rhumerus -76.7329 21.6251 -96.5207
rradius 110.55 -0 0
rwrist -67.8327 0 0
rhand -11.3312 -24.3045 -4.60322e-05
rfingers 7.12502 -0 0
rthumb 14.7014 -53.7633 -4.40747e-05
919
root -0.196398 14.1262 -36.2831 12.6121 -27.4404 -16.2837
lfemur -64.3521 31.3475 -0.535845
ltibia 70.0074 -0 0
lfoot -6.68684 -9.06266 0.00851598
ltoes -9.52827 0 0
rfemur 5.82754 -8.6143 12.7056
rtibia 38.6055 -0 0
rfoot -22.7843 -28.1805 -0.00330572
rtoes -28.4487 0 0
lowerback 11.3162 -0.0234269 6.70616
upperback -1.64463 1.31548 5.7095
thorax -8.13971 0.455507 2.08166
lowerneck -3.79401 7.82732 2.4368
upperneck 4.45037 10.3501 -0.78047
head 2.22911 5.17823 -0.323987
lclavicle 3.04141e-14 -7.31528e-14 0
lhumerus 12.2171 -14.0383 70.8666
lradius 25.9077 -0 0
lwrist -23.6472 0 0
lhand -28.3659 30.8781 0.00468923
lfingers 7.12502 -0 0
lthumb -1.73906 60.8026 0.00513548
rclavicle 3.04141e-14 -7.31528e-14 0
rhumerus -76.7344 21.6198 -96.4885
rradius 110.542 -0 0
rwrist -67.8028 0 0
rhand -11.3301 -24.3174 -4.72126e-05
rfingers 7.12502 -0 0
rthumb 14.7024 -53.776 -4.52048e-05
920
root -0.187141 14.1177 -36.2737 12.601 -27.4291 -16.3263
lfemur -64.4617 31.4287 -0.58883
ltibia 70.1879 -0 0
lfoot -6.71953 -9.13728 0.00868631
ltoes -9.24173 0 0
rfemur 5.88699 -8.64071 12.6653
rtibia 38.6008 -0 0
rfoot -22.804 -28.1323 -0.00337183
rtoes -28.5504 0 0
lowerback 11.2912 -0.0412225 6.73717
upperback -1.63334 1.29587 5.76909
thorax -8.11454 0.446321 2.13172
lowerneck -3.79734 7.83449 2.47128
upperneck 4.51195 10.3593 -0.806062
head 2.25409 5.18273 -0.33529
lclavicle 3.04141e-14 -7.31528e-14 0
lhumerus 12.1671 -15.5233 71.1035
lradius 26.4136 -0 0
lwrist -22.3104 0 0
lhand -28.1317 30.8838 0.00478307
lfingers 7.12502 -0 0
lthumb -1.51284 60.8091 0.00523824
rclavicle 3.04141e-14 -7.31528e-14 0
rhumerus -76.7359 21.6146 -96.4563
rradius 110.534 -0 0
rwrist -67.7728 0 0
rhand -11.3291 -24.3302 -4.81568e-05
rfingers 7.12502 -0 0
rthumb 14.7034 -53.7888 -4.61089e-05
921
root -0.177885 14.1092 -36.2642 12.5898 -27.4179 -16.3689
lfemur -64.5716 31.5099 -0.642043
ltibia 70.3685 -0 0
lfoot -6.75223 -9.2119 0.00881406
ltoes -8.95518 0 0
rfemur 5.94647 -8.66708 12.625
rtibia 38.5961 -0 0
rfoot -22.8236 -28.0841 -0.00342142
rtoes -28.6521 0 0
lowerback 11.2661 -0.0590045 6.7682
upperback -1.62207 1.27624 5.82868
thorax -8.08938 0.437114 2.18178
lowerneck -3.80066 7.84166 2.50576
upperneck 4.57354 10.3685 -0.831644
head 2.27907 5.18725 -0.346592
lclavicle 3.04141e-14 -7.31528e-14 0
lhumerus 12.1103 -17.0082 71.3435
lradius 26.9195 -0 0
lwrist -20.9735 0 0
lhand -27.8974 30.8896 0.00485345
lfingers 7.12502 -0 0
lthumb -1.28662 60.8156 0.00531532
rclavicle 3.04141e-14 -7.31528e-14 0
rhumerus -76.7374 21.6094 -96.4241
rradius 110.526 -0 0
rwrist -67.7429 0 0
rhand -11.328 -24.3431 -4.8865e-05
rfingers 7.12502 -0 0
rthumb 14.7045 -53.8015 -4.6787e-05
922
root -0.168628 14.1007 -36.2547 12.5786 -27.4066 -16.4115
lfemur -64.6816 31.5909 -0.695485
ltibia 70.549 -0 0
lfoot -6.78492 -9.28653 0.00889923
ltoes -8.66864 0 0
rfemur 6.00597 -8.6934 12.5847
rtibia 38.5914 -0 0
rfoot -22.8433 -28.0359 -0.00345448
rtoes -28.7537 0 0
lowerback 11.2411 -0.0767729 6.79923
upperback -1.61082 1.2566 5.88826
thorax -8.06423 0.427885 2.23183
lowerneck -3.80398 7.84883 2.54024
upperneck 4.63512 10.3778 -0.857217
head 2.30404 5.19176 -0.357892
lclavicle 3.04141e-14 -7.31528e-14 0
lhumerus 12.0465 -18.4928 71.5871
lradius 27.4253 -0 0
lwrist -19.6367 0 0
lhand -27.6632 30.8953 0.00490037
lfingers 7.12502 -0 0
lthumb -1.0604 60.8221 0.0053667
rclavicle 3.04141e-14 -7.31528e-14 0
rhumerus -76.739 21.6041 -96.3918
rradius 110.518 -0 0
rwrist -67.713 0 0
rhand -11.327 -24.3559 -4.93371e-05
rfingers 7.12502 -0 0
rthumb 14.7055 -53.8143 -4.7239e-05
923
root -0.159372 14.0922 -36.2453 12.5673 -27.3954 -16.4541
lfemur -64.7918 31.6718 -0.749156
ltibia 70.7296 -0 0
lfoot -6.81762 -9.36115 0.00894181
ltoes -8.38209 0 0
rfemur 6.0655 -8.71968 12.5444
rtibia 38.5867 -0 0
rfoot -22.8629 -27.9877 -0.00347101
rtoes -28.8554 0 0
lowerback 11.216 -0.0945277 6.83027
upperback -1.59959 1.23695 5.94784
thorax -8.03908 0.418634 2.28187
lowerneck -3.8073 7.856 2.57471
upperneck 4.69669 10.387 -0.882781
head 2.32902 5.19629 -0.369189
lclavicle 3.04141e-14 -7.31528e-14 0
lhumerus 11.9753 -19.9771 71.8347
lradius 27.9312 -0 0
lwrist -18.2999 0 0
lhand -27.4289 30.901 0.00492383
lfingers 7.12502 -0 0
lthumb -0.834176 60.8286 0.00539239
rclavicle 3.04141e-14 -7.31528e-14 0
rhumerus -76.7405 21.5989 -96.3596
rradius 110.51 -0 0
rwrist -67.683 0 0
rhand -11.3259 -24.3687 -4.95732e-05
rfingers 7.12502 -0 0
rthumb 14.7065 -53.8271 -4.7465e-05
924
root -0.150115 14.0836 -36.2358 12.5561 -27.3841 -16.4967
lfemur -64.9022 31.7527 -0.803057
ltibia 70.9101 -0 0
lfoot -6.85031 -9.43577 0.00894181
ltoes -8.09555 0 0
rfemur 6.12505 -8.74593 12.504
rtibia 38.5821 -0 0
rfoot -22.8826 -27.9396 -0.00347101
rtoes -28.9571 0 0
lowerback 11.1909 -0.112269 6.86131
upperback -1.58838 1.21729 6.00742
thorax -8.01395 0.409361 2.33192
lowerneck -3.81061 7.86318 2.60919
upperneck 4.75827 10.3963 -0.908335
head 2.354 5.20081 -0.380485
lclavicle 3.04141e-14 -7.31528e-14 0
lhumerus 11.8966 -21.4612 72.0867
lradius 28.4371 -0 0
lwrist -16.963 0 0
lhand -27.1947 30.9068 0.00492383
lfingers 7.12502 -0 0
lthumb -0.607954 60.8351 0.00539239
rclavicle 3.04141e-14 -7.31528e-14 0
rhumerus -76.7421 21.5937 -96.3274
rradius 110.502 -0 0
rwrist -67.6531 0 0
rhand -11.3249 -24.3816 -4.95732e-05
rfingers 7.12502 -0 0
rthumb 14.7075 -53.8398 -4.7465e-05
925
root -0.140858 14.0751 -36.2264 12.5449 -27.3729 -16.5393
lfemur -65.0128 31.8335 -0.857188
ltibia 71.0907 -0 0
lfoot -6.88301 -9.51039 0.00889923
ltoes -7.809 0 0
rfemur 6.18462 -8.77213 12.4636
rtibia 38.5774 -0 0
rfoot -22.9022 -27.8914 -0.00345448
rtoes -29.0588 0 0
lowerback 11.1659 -0.129997 6.89237
upperback -1.5772 1.19762 6.06699
thorax -7.98882 0.400066 2.38196
lowerneck -3.81392 7.87035 2.64367
upperneck 4.81984 10.4056 -0.93388
head 2.37898 5.20535 -0.391779
lclavicle 3.04141e-14 -7.31528e-14 0
lhumerus 11.81 -22.9448 72.3435
lradius 28.943 -0 0
lwrist -15.6262 0 0
lhand -26.9604 30.9125 0.00490037
lfingers 7.12502 -0 0
lthumb -0.381732 60.8416 0.0053667
rclavicle 3.04141e-14 -7.31528e-14 0
rhumerus -76.7436 21.5884 -96.2952
rradius 110.494 -0 0
rwrist -67.6231 0 0
rhand -11.3238 -24.3944 -4.93371e-05
rfingers 7.12502 -0 0
rthumb 14.7085 -53.8526 -4.7239e-05
926
root -0.131602 14.0666 -36.2169 12.5337 -27.3617 -16.5818
lfemur -65.1236 31.9141 -0.91155
ltibia 71.2712 -0 0
lfoot -6.9157 -9.58502 0.00881406
ltoes -7.52246 0 0
rfemur 6.24421 -8.79829 12.4232
rtibia 38.5727 -0 0
rfoot -22.9219 -27.8432 -0.00342142
rtoes -29.1604 0 0
lowerback 11.1408 -0.147711 6.92343
upperback -1.56603 1.17793 6.12655
thorax -7.9637 0.390749 2.43199
lowerneck -3.81723 7.87753 2.67815
upperneck 4.88141 10.415 -0.959416
head 2.40395 5.20988 -0.403071
lclavicle 3.04141e-14 -7.31528e-14 0
lhumerus 11.7151 -24.4282 72.6058
lradius 29.4488 -0 0
lwrist -14.2894 0 0
lhand -26.7262 30.9182 0.00485345
lfingers 7.12502 -0 0
lthumb -0.15551 60.8481 0.00531532
rclavicle 3.04141e-14 -7.31528e-14 0
rhumerus -76.7452 21.5832 -96.263
rradius 110.486 -0 0
rwrist -67.5932 0 0
rhand -11.3228 -24.4072 -4.8865e-05
rfingers 7.12502 -0 0
rthumb 14.7095 -53.8654 -4.6787e-05
927
root -0.122345 14.0581 -36.2074 12.5224 -27.3504 -16.6244
lfemur -65.2345 31.9947 -0.966144
ltibia 71.4518 -0 0
lfoot -6.9484 -9.65964 0.00868631
ltoes -7.23591 0 0
rfemur 6.30383 -8.8244 12.3827
rtibia 38.568 -0 0
rfoot -22.9415 -27.795 -0.00337183
rtoes -29.2621 0 0
lowerback 11.1157 -0.165411 6.9545
upperback -1.55489 1.15823 6.18611
thorax -7.93859 0.38141 2.48202
lowerneck -3.82053 7.88471 2.71263
upperneck 4.94298 10.4244 -0.984942
head 2.42893 5.21443 -0.414361
lclavicle 3.04141e-14 -7.31528e-14 0
lhumerus 11.6115 -25.911 72.874
lradius 29.9547 -0 0
lwrist -12.9525 0 0
lhand -26.4919 30.924 0.00478307
lfingers 7.12502 -0 0
lthumb 0.0707116 60.8546 0.00523824
rclavicle 3.04141e-14 -7.31528e-14 0
rhumerus -76.7467 21.578 -96.2308
rradius 110.478 -0 0
rwrist -67.5633 0 0
rhand -11.3217 -24.4201 -4.81568e-05
rfingers 7.12502 -0 0
rthumb 14.7106 -53.8781 -4.61089e-05
